# xmcd
#
# Track frame offsets:
# 150
# 17020
# 35584
# 56709
# 72633
# 94372
# 111990
# 126069
# 143447
# 164907
# 186947
# 206323
# 225847
#
# Disc length: 3368 seconds
#
#
# Revision: 2
# Processed by: cddbd v1.5.1PL0 Copyright (c) Steve Scherf et al.
# Submitted via: FreeRIP 2.80 
#
DISCID=b90d260d
DTITLE=Grup Cig - Mevsim
DYEAR=2004
DGENRE=Other
TTITLE0=Benim Omrum
TTITLE1=Keklik Idim Vurdular
TTITLE2=Dostum
TTITLE3=Koroglu
TTITLE4=Yesil Yaprak Arasinda
TTITLE5=Daglar Atamadim Sevdami
TTITLE6=Canimin Canani Canan
TTITLE7=Guz Mu Geldi Rengin Soluk
TTITLE8=Yarim Senden Ayrilali
TTITLE9=Gurbete Gidisimdir
TTITLE10=Guzelim Asiginim Ezelden
TTITLE11=Gurbet Elde Bir Hal Geldi Basima
TTITLE12=Halay Potpori
EXTD=
EXTT0=
EXTT1=
EXTT2=
EXTT3=
EXTT4=
EXTT5=
EXTT6=
EXTT7=
EXTT8=
EXTT9=
EXTT10=
EXTT11=
EXTT12=
PLAYORDER=
